<svg id="Calque_1" data-name="Calque 1" xmlns="http://www.w3.org/2000/svg" viewBox="0 0 705.89 454.83"><defs><style>.cls-1,.cls-2{fill:none;stroke:#fff;stroke-miterlimit:10;}.cls-2{stroke-linecap:round;stroke-width:3px;}.cls-3{font-size:130px;fill:#fff;font-family:Arenq;}.cls-4{letter-spacing:-0.02em;}.cls-5{letter-spacing:-0.01em;}</style></defs><title>Logo</title><path class="cls-1" d="M299.7,160.24a63,63,0,0,0,15.55,17.43"/><path class="cls-1" d="M329.64,186A62.87,62.87,0,0,0,401,86.54c-1.11-1.28-2.29-2.51-3.52-3.71"/><path class="cls-1" d="M290.73,127.86A62.86,62.86,0,0,1,388,75.27"/><path class="cls-1" d="M416.44,127.86v88.76a60,60,0,0,1-58.86,60"/><path class="cls-1" d="M305.36,255.89a59.89,59.89,0,0,0,44.23,20.77"/><path class="cls-1" d="M290.73,127.86v88.76a59.55,59.55,0,0,0,7.36,28.8"/><line class="cls-1" x1="357.58" y1="331.49" x2="357.58" y2="276.66"/><line class="cls-1" x1="357.58" y1="266.01" x2="357.58" y2="221.85"/><line class="cls-2" x1="273.76" y1="131.2" x2="223.88" y2="131.2"/><line class="cls-2" x1="353.58" y1="51.39" x2="353.58" y2="1.5"/><line class="cls-2" x1="297.14" y1="74.77" x2="261.87" y2="39.49"/><line class="cls-2" x1="321.12" y1="58.27" x2="300.82" y2="12.69"/><line class="cls-2" x1="279.5" y1="101.43" x2="233.25" y2="82.71"/><line class="cls-2" x1="432.13" y1="130.6" x2="482.02" y2="130.6"/><line class="cls-2" x1="408.75" y1="74.16" x2="444.03" y2="38.89"/><line class="cls-2" x1="384.78" y1="57.66" x2="405.07" y2="12.08"/><line class="cls-2" x1="426.39" y1="100.83" x2="472.64" y2="82.12"/><path class="cls-1" d="M329.64,176.12a53.89,53.89,0,1,0-8-4.87"/><path class="cls-1" d="M299.7,131.2v80.43c0,30,23.05,54.4,51.48,54.4H356c28.43,0,51.48-24.36,51.48-54.4v-1.76"/><line class="cls-1" x1="407.46" y1="195.85" x2="407.46" y2="160.24"/><line class="cls-1" x1="349.59" y1="331.49" x2="349.59" y2="276.66"/><line class="cls-1" x1="349.59" y1="266.01" x2="349.59" y2="221.85"/><line class="cls-1" x1="299.7" y1="131.2" x2="299.7" y2="95.46"/><line class="cls-1" x1="357.58" y1="276.66" x2="357.58" y2="266.01"/><line class="cls-1" x1="416.44" y1="209.87" x2="407.46" y2="209.87"/><line class="cls-1" x1="329.64" y1="185.99" x2="329.64" y2="176.12"/><line class="cls-1" x1="400.95" y1="86.54" x2="394.59" y2="92.91"/><line class="cls-1" x1="313.06" y1="248.2" x2="305.36" y2="255.89"/><line class="cls-1" x1="306.57" y1="238.78" x2="298.09" y2="245.42"/><line class="cls-1" x1="349.59" y1="230.18" x2="357.58" y2="230.18"/><line class="cls-1" x1="349.59" y1="302.43" x2="357.58" y2="302.43"/><line class="cls-1" x1="357.58" y1="312.14" x2="349.59" y2="312.14"/><text class="cls-3" transform="translate(0 454.57)"><tspan class="cls-4">L</tspan><tspan x="76.7" y="0">UMIN</tspan><tspan class="cls-5" x="382.2" y="0">A</tspan><tspan x="490.88" y="0">RIA</tspan></text></svg>